<svg version="1.1" xmlns="http://www.w3.org/2000/svg" width="32" height="32" viewBox="0 0 32 32">
<path fill="#d421b0" d="M27.2 0h-22.4c-2.65 0.003-4.797 2.15-4.8 4.8v22.4c0.003 2.65 2.15 4.797 4.8 4.8h22.4c0.292-0 0.579-0.035 0.863-0.088 0.106-0.019 0.207-0.049 0.31-0.075 0.17-0.043 0.336-0.094 0.5-0.156 0.119-0.044 0.236-0.091 0.35-0.145 0.134-0.063 0.263-0.137 0.391-0.212 0.12-0.071 0.242-0.137 0.355-0.218 0.009-0.007 0.020-0.011 0.029-0.018 0.012-0.009 0.022-0.019 0.034-0.029 0.022-0.018 0.049-0.026 0.069-0.046 0.011-0.011 0.014-0.025 0.024-0.036 1.132-0.878 1.873-2.235 1.875-3.778v-22.4c-0.003-2.65-2.15-4.797-4.8-4.8zM28.12 30.249c-0.299 0.092-0.607 0.151-0.92 0.151h-22.4c-1.766-0.002-3.198-1.434-3.2-3.2v-7.559l6.020-6.020c1.094-1.091 2.865-1.091 3.959 0l5.448 5.447c0.003 0.003 0.004 0.007 0.007 0.011l11.15 11.15c-0.021 0.007-0.043 0.013-0.065 0.020zM30.4 27.2c-0.001 0.826-0.323 1.572-0.837 2.139l-10.83-10.828 1.689-1.689c1.106-1.059 2.85-1.059 3.956 0l6.022 6.022v4.356zM30.4 20.581l-4.891-4.891c-1.718-1.716-4.501-1.716-6.219 0l-1.689 1.689-4.891-4.89c-1.719-1.716-4.503-1.716-6.222 0l-4.889 4.889v-12.578c0.002-1.766 1.434-3.198 3.2-3.2h22.4c1.766 0.002 3.198 1.434 3.2 3.2v15.781zM18.4 6.4c-1.325 0-2.4 1.075-2.4 2.4s1.075 2.4 2.4 2.4c1.325-0.001 2.399-1.075 2.4-2.4 0-1.325-1.075-2.4-2.4-2.4zM18.4 9.6c-0.442 0-0.8-0.358-0.8-0.8s0.358-0.8 0.8-0.8c0.441 0.001 0.799 0.359 0.8 0.8s-0.358 0.8-0.8 0.8z"></path>
</svg>