<svg aria-hidden="true" style="position: absolute; width: 0; height: 0; overflow: hidden;" version="1.1" xmlns="http://www.w3.org/2000/svg" xmlns:xlink="http://www.w3.org/1999/xlink">
<defs>
<symbol id="icon-error" viewBox="0 0 24 24">
<path d="M12 20.016q3.281 0 5.648-2.367t2.367-5.648-2.367-5.648-5.648-2.367-5.648 2.367-2.367 5.648 2.367 5.648 5.648 2.367zM12 2.016q4.125 0 7.055 2.93t2.93 7.055-2.93 7.055-7.055 2.93-7.055-2.93-2.93-7.055 2.93-7.055 7.055-2.93zM11.016 6.984h1.969v6h-1.969v-6zM11.016 15h1.969v2.016h-1.969v-2.016z"></path>
</symbol>
<symbol id="icon-fav" viewBox="0 0 32 32">
      <path fill="#d421b0" style="fill:var(--color1, #d421b0)" d="M27.2 0H4.8A4.805 4.805 0 0 0 0 4.8v22.4A4.805 4.805 0 0 0 4.8 32h22.4c.292 0 .579-.035.863-.088.106-.019.207-.049.31-.075.17-.043.336-.094.5-.156.119-.044.236-.091.35-.145a4.92 4.92 0 0 0 .391-.212c.12-.071.242-.137.355-.218.009-.007.02-.011.029-.018l.034-.029c.022-.018.049-.026.069-.046.011-.011.014-.025.024-.036 1.132-.878 1.873-2.235 1.875-3.778v-22.4a4.805 4.805 0 0 0-4.8-4.8zm.92 30.249a3.131 3.131 0 0 1-.92.151H4.8a3.204 3.204 0 0 1-3.2-3.2v-7.559l6.02-6.02a2.804 2.804 0 0 1 3.959 0l5.448 5.447.007.011 11.15 11.15-.065.02zM30.4 27.2a3.18 3.18 0 0 1-.837 2.139l-10.83-10.828 1.689-1.689a2.86 2.86 0 0 1 3.956 0l6.022 6.022V27.2zm0-6.619-4.891-4.891a4.4 4.4 0 0 0-6.219 0l-1.689 1.689-4.891-4.89a4.404 4.404 0 0 0-6.222 0l-4.889 4.889V4.8a3.204 3.204 0 0 1 3.2-3.2h22.4a3.204 3.204 0 0 1 3.2 3.2v15.781zM18.4 6.4a2.4 2.4 0 1 0 .001 4.801A2.4 2.4 0 0 0 18.4 6.4zm0 3.2a.8.8 0 1 1 0-1.6.8.8 0 0 1 0 1.6z"/>
    </symbol>
</defs>
</svg>